/* XPM */
static char * exit_xpm[] = {
"64 64 6 1",
" 	c #222222",
".	c #483B3A",
"+	c #775C55",
"@	c #C56025",
"#	c #8F4029",
"$	c #62232F",
"            ....                ............    ....            ",
"            ....                ............    ....            ",
"            ....                ............    ....            ",
"            ....                ............    ....            ",
"    ........................................................++++",
"    ........................................................++++",
"    ........................................................++++",
"    ........................................................++++",
"............................................................++++",
"............................................................++++",
"............................................................++++",
"............................................................++++",
"............................................................++++",
"............................................................++++",
"............................................................++++",
"............................................................++++",
"    ............@@@@++++++++++++++++++++++++@@@@............++++",
"    ............@@@@++++++++++++++++++++++++@@@@............++++",
"    ............@@@@++++++++++++++++++++++++@@@@............++++",
"    ............@@@@++++++++++++++++++++++++@@@@............++++",
"........++++++++@@@@    @@@@@@@@@@@@@@@@++++@@@@++++++++....++++",
"........++++++++@@@@    @@@@@@@@@@@@@@@@++++@@@@++++++++....++++",
"........++++++++@@@@    @@@@@@@@@@@@@@@@++++@@@@++++++++....++++",
"........++++++++@@@@    @@@@@@@@@@@@@@@@++++@@@@++++++++....++++",
"    ++++++++    @@@@                        @@@@++++    ++++....",
"    ++++++++    @@@@                        @@@@++++    ++++....",
"    ++++++++    @@@@                        @@@@++++    ++++....",
"    ++++++++    @@@@                        @@@@++++    ++++....",
"        ++++    @@@@    @@@@@@@@@@@@@@@@    @@@@            ++++",
"        ++++    @@@@    @@@@@@@@@@@@@@@@    @@@@            ++++",
"        ++++    @@@@    @@@@@@@@@@@@@@@@    @@@@            ++++",
"        ++++    @@@@    @@@@@@@@@@@@@@@@    @@@@            ++++",
"                ####                        ####            ....",
"                ####                        ####            ....",
"                ####                        ####            ....",
"                ####                        ####            ....",
"....            ####    ################    ####            ....",
"....            ####    ################    ####            ....",
"....            ####    ################    ####            ....",
"....            ####    ################    ####            ....",
"....++++        $$$$                        $$$$        ++++++++",
"....++++        $$$$                        $$$$        ++++++++",
"....++++        $$$$                        $$$$        ++++++++",
"....++++        $$$$                        $$$$        ++++++++",
"    ....++++++++$$$$    $$$$$$$$$$$$$$$$    $$$$++++++++........",
"    ....++++++++$$$$    $$$$$$$$$$$$$$$$    $$$$++++++++........",
"    ....++++++++$$$$    $$$$$$$$$$$$$$$$    $$$$++++++++........",
"    ....++++++++$$$$    $$$$$$$$$$$$$$$$    $$$$++++++++........",
"    ............++++++++++++++++++++++++++++++++................",
"    ............++++++++++++++++++++++++++++++++................",
"    ............++++++++++++++++++++++++++++++++................",
"    ............++++++++++++++++++++++++++++++++................",
"    ........................................................++++",
"    ........................................................++++",
"    ........................................................++++",
"    ........................................................++++",
"    ........................................................++++",
"    ........................................................++++",
"    ........................................................++++",
"    ........................................................++++",
"++++++++++++........++++....++++++++++++++++....++++++++++++++++",
"++++++++++++........++++....++++++++++++++++....++++++++++++++++",
"++++++++++++........++++....++++++++++++++++....++++++++++++++++",
"++++++++++++........++++....++++++++++++++++....++++++++++++++++"};
