/* XPM */
static char * player_1_xpm[] = {
"64 64 7 1",
" 	c #222222",
".	c #483B3A",
"+	c #775C55",
"@	c #3D734F",
"#	c #314152",
"$	c #4BA747",
"%	c #D3BFA9",
"            ....                ............    ....            ",
"            ....                ............    ....            ",
"            ....                ............    ....            ",
"            ....                ............    ....            ",
"    ........................................................++++",
"    ........................................................++++",
"    ........................................................++++",
"    ........................................................++++",
"............................................................++++",
"............................................................++++",
"....    ................    ................................++++",
"....    ................    ................................++++",
"....    ................    ................................++++",
"....        ............        ............................++++",
"....        ............        ............................++++",
"....        ............        ............................++++",
"            ............        ............................++++",
"        @@@@        ....    @@@@        ....................++++",
"        @@@@        ....    @@@@        ....................++++",
"        @@@@        ....    @@@@        ....................++++",
"....    @@@@@@@@@@@@        ############                    ++++",
"....    @@@@@@@@@@@@        ############                    ++++",
"....    @@@@@@@@@@@@        ############                    ++++",
"....    @@@@@@@@@@@@        ############                    ++++",
"    ....    $$$$$$$$$$$$$$$$$$$$$$$$$$$$$$$$$$$$$$$$$$$$$$$$    ",
"    ....    $$$$$$$$$$$$$$$$$$$$$$$$$$$$$$$$$$$$$$$$$$$$$$$$    ",
"    ....    $$$$$$$$$$$$$$$$$$$$$$$$$$$$$$$$$$$$$$$$$$$$$$$$    ",
"    ....    $$$$$$$$$$$$$$$$$$$$$$$$$$$$$$$$$$$$$$$$$$$$$$$$    ",
"    ....    $$$$$$$$$$$$$$$$$$$$$$$$$$$$$$$$$$$$$$$$$$$$$$$$    ",
"    ....    $$$$$$$$$$$$$$$$$$$$$$$$$$$$$$$$$$$$$$$$$$$$$$$$    ",
"    ....    $$$$$$$$$$$$        $$$$$$$$    $$$$$$$$$$$$        ",
"    ....    $$$$$$$$$$$$        $$$$$$$$    $$$$$$$$$$$$        ",
"    ....    $$$$$$$$$$$$        $$$$$$$$    $$$$$$$$$$$$        ",
"    ....    $$$$$$$$$$$$        $$$$$$$$    $$$$$$$$$$$$        ",
"    ....    $$$$$$$$$$$$        $$$$$$$$@@@@$$$$$$$$$$$$@@@@    ",
"    ....    $$$$$$$$$$$$        $$$$$$$$@@@@$$$$$$$$$$$$@@@@    ",
"........    $$$$$$$$$$$$        $$$$$$$$@@@@$$$$$$$$$$$$@@@@    ",
"........    $$$$$$$$$$$$@@@@@@@@$$$$$$$$$$$$$$$$$$$$$$$$$$$$    ",
"........    $$$$$$$$$$$$@@@@@@@@$$$$$$$$$$$$$$$$$$$$$$$$$$$$    ",
"........    $$$$$$$$$$$$@@@@@@@@$$$$$$$$$$$$$$$$$$$$$$$$$$$$    ",
"............    $$$$$$$$$$$$$$$$$$$$$$$$$$$$$$$$$$$$$$$$$$$$    ",
"............    $$$$$$$$$$$$$$$$$$$$$$$$$$$$$$$$$$$$$$$$$$$$    ",
"............    $$$$$$$$$$$$$$$$$$$$$$$$$$$$$$$$$$$$$$$$$$$$    ",
"............    $$$$$$$$$$$$$$$$$$$$$$$$$$$$$$$$$$$$$$$$$$$$    ",
"    ........    $$$$$$$$$$$$$$$$$$$$@@@@############            ",
"    ........    $$$$$$$$$$$$$$$$$$$$@@@@############            ",
"    ........    $$$$$$$$$$$$$$$$$$$$@@@@############            ",
"    ........    $$$$$$$$$$$$$$$$%%%%%%%%%%%%%%%%    ............",
"    ........    $$$$$$$$$$$$$$$$%%%%%%%%%%%%%%%%    ............",
"    ........    $$$$$$$$$$$$$$$$%%%%%%%%%%%%%%%%    ............",
"    ........    $$$$$$$$$$$$$$$$%%%%%%%%%%%%%%%%    ............",
"                $$$$$$$$$$$$$$$$%%%%%%%%%%%%%%%%    ............",
"                $$$$$$$$$$$$$$$$%%%%%%%%%%%%%%%%    ........++++",
"                $$$$$$$$$$$$$$$$%%%%%%%%%%%%%%%%    ........++++",
"    $$$$$$$$........................................    ....++++",
"    $$$$$$$$........................................    ....++++",
"    $$$$$$$$........................................    ....++++",
"            $$$$$$$$$$$$++++++++++++++++$$$$$$$$$$$$    ....++++",
"            $$$$$$$$$$$$++++++++++++++++$$$$$$$$$$$$    ....++++",
"            $$$$$$$$$$$$++++++++++++++++$$$$$$$$$$$$    ....++++",
"++++        $$$$$$$$$$$$++++++++++++++++$$$$$$$$$$$$    ++++++++",
"++++++++                                                ++++++++",
"++++++++                                                ++++++++",
"++++++++                                                ++++++++"};
