/* XPM */
static char * wall_horizontal_xpm[] = {
"64 64 5 1",
" 	c #222222",
".	c #483B3A",
"+	c #775C55",
"@	c #AA8D7A",
"#	c #D3BFA9",
"            ....                                ....            ",
"            ....                                ....            ",
"            ....                                ....            ",
"            ....                                ....            ",
"    ................    ++++@@@@@@@@++++    ................++++",
"    ................    ++++@@@@@@@@++++    ................++++",
"    ................    ++++@@@@@@@@++++    ................++++",
"    ................    ++++@@@@@@@@++++    ................++++",
"....................    @@@@@@@@@@@@@@@@    ................++++",
"....................    @@@@@@@@@@@@@@@@    ................++++",
"....................    @@@@@@@@@@@@@@@@    ................++++",
"....................    @@@@@@@@@@@@@@@@    ................++++",
"....................    @@@@@@@@@@@@@@@@    ................++++",
"....................    @@@@@@@@@@@@@@@@    ................++++",
"....................    @@@@@@@@@@@@@@@@    ................++++",
"....................    @@@@@@@@@@@@@@@@    ................++++",
"    ................    @@@@@@@@@@@@@@@@    ................++++",
"    ................    @@@@@@@@@@@@@@@@    ................++++",
"    ................    @@@@@@@@@@@@@@@@    ................++++",
"    ................    @@@@@@@@@@@@@@@@    ................++++",
"....................    @@@@@@@@@@@@@@@@    ................++++",
"....................    @@@@@@@@@@@@@@@@    ................++++",
"....................    @@@@@@@@@@@@@@@@    ................++++",
"....................    @@@@@@@@@@@@@@@@    ................++++",
"    ................    @@@@@@@@@@@@@@@@    ....................",
"    ................    @@@@@@@@@@@@@@@@    ....................",
"    ................    @@@@@@@@@@@@@@@@    ....................",
"    ................    @@@@@@@@@@@@@@@@    ....................",
"    ................    @@@@@@@@@@@@@@@@    ................++++",
"    ................    @@@@@@@@@@@@@@@@    ................++++",
"    ................    @@@@@@@@@@@@@@@@    ................++++",
"    ................    @@@@@@@@@@@@@@@@    ................++++",
"    ................    ################    ....................",
"    ................    ################    ....................",
"    ................    ################    ....................",
"    ................    ################    ....................",
"....................                        ................++++",
"....................                        ................++++",
"....................                        ................++++",
"....................                        ................++++",
"....................    @@@@@@@@@@@@@@@@    ................++++",
"....................    @@@@@@@@@@@@@@@@    ................++++",
"....................    @@@@@@@@@@@@@@@@    ................++++",
"....................    @@@@@@@@@@@@@@@@    ................++++",
"    ................    @@@@@@@@@@@@@@@@    ....................",
"    ................    @@@@@@@@@@@@@@@@    ....................",
"    ................    @@@@@@@@@@@@@@@@    ....................",
"    ................    @@@@@@@@@@@@@@@@    ....................",
"    ................    @@@@@@@@@@@@@@@@    ....................",
"    ................    @@@@@@@@@@@@@@@@    ....................",
"    ................    @@@@@@@@@@@@@@@@    ....................",
"    ................    @@@@@@@@@@@@@@@@    ....................",
"    ................    @@@@@@@@@@@@@@@@    ................++++",
"    ................    @@@@@@@@@@@@@@@@    ................++++",
"    ................    @@@@@@@@@@@@@@@@    ................++++",
"    ................    @@@@@@@@@@@@@@@@    ................++++",
"    ................    @@@@@@@@@@@@@@@@    ................++++",
"    ................    @@@@@@@@@@@@@@@@    ................++++",
"    ................    @@@@@@@@@@@@@@@@    ................++++",
"    ................    @@@@@@@@@@@@@@@@    ................++++",
"++++++++++++........    @@@@@@@@@@@@@@@@    ....++++++++++++++++",
"++++++++++++........    @@@@@@@@@@@@@@@@    ....++++++++++++++++",
"++++++++++++........    @@@@@@@@@@@@@@@@    ....++++++++++++++++",
"++++++++++++........    @@@@@@@@@@@@@@@@    ....++++++++++++++++"};
