/* XPM */
static char *upscaled[] = {
"64 64 5 1",
"  c #222222",
". c #775C55",
"X c #AA8D7A",
"o c #D3BFA9",
"O c #483B3A",
"                                                                ",
"                                                                ",
"                                                                ",
"                                                                ",
"    ....XXXXXXXXXXXXXXXXXXXXXXXXXXXXXXXX    XXXXXXXXXXXXXXXX    ",
"    ....XXXXXXXXXXXXXXXXXXXXXXXXXXXXXXXX    XXXXXXXXXXXXXXXX    ",
"    ....XXXXXXXXXXXXXXXXXXXXXXXXXXXXXXXX    XXXXXXXXXXXXXXXX    ",
"    ....XXXXXXXXXXXXXXXXXXXXXXXXXXXXXXXX    XXXXXXXXXXXXXXXX    ",
"    XXXXXXXXXXXXXXXXXXXXXXXXXXXXXXXXXXXX    XXXXXXXXXXXXXXXX    ",
"    XXXXXXXXXXXXXXXXXXXXXXXXXXXXXXXXXXXX    XXXXXXXXXXXXXXXX    ",
"    XXXXXXXXXXXXXXXXXXXXXXXXXXXXXXXXXXXX    XXXXXXXXXXXXXXXX    ",
"    XXXXXXXXXXXXXXXXXXXXXXXXXXXXXXXXXXXX    XXXXXXXXXXXXXXXX    ",
"    XXXXXXXXXXXXXXXXXXXXXXXXXXXXXXXXXXXX    XXXXXXXXXXXXXXXX    ",
"    XXXXXXXXXXXXXXXXXXXXXXXXXXXXXXXXXXXX    XXXXXXXXXXXXXXXX    ",
"    XXXXXXXXXXXXXXXXXXXXXXXXXXXXXXXXXXXX    XXXXXXXXXXXXXXXX    ",
"    XXXXXXXXXXXXXXXXXXXXXXXXXXXXXXXXXXXX    XXXXXXXXXXXXXXXX    ",
"    oooooooooooooooooooooooooooooooooooo    oooooooooooooooo    ",
"    oooooooooooooooooooooooooooooooooooo    oooooooooooooooo    ",
"    oooooooooooooooooooooooooooooooooooo    oooooooooooooooo    ",
"    oooooooooooooooooooooooooooooooooooo    oooooooooooooooo    ",
"    ....................................    ................    ",
"    ....................................    ................    ",
"    ....................................    ................    ",
"    ....................................    ................    ",
"    OOOOOOOOOOOOOOOOOOOOOOOOOOOOOOOOOOOO    OOOOOOOOOOOOOOOO    ",
"    OOOOOOOOOOOOOOOOOOOOOOOOOOOOOOOOOOOO    OOOOOOOOOOOOOOOO    ",
"    OOOOOOOOOOOOOOOOOOOOOOOOOOOOOOOOOOOO    OOOOOOOOOOOOOOOO    ",
"    OOOOOOOOOOOOOOOOOOOOOOOOOOOOOOOOOOOO    OOOOOOOOOOOOOOOO    ",
"                                                                ",
"                                                                ",
"                                                                ",
"                                                                ",
"    ........................    ............................    ",
"    ........................    ............................    ",
"    ........................    ............................    ",
"    ........................    ............................    ",
"    OOOOOOOOOOOOOOOOOOOOOOOO    OOOOOOOOOOOOOOOOOOOOOOOOOOOO    ",
"    OOOOOOOOOOOOOOOOOOOOOOOO    OOOOOOOOOOOOOOOOOOOOOOOOOOOO    ",
"    OOOOOOOOOOOOOOOOOOOOOOOO    OOOOOOOOOOOOOOOOOOOOOOOOOOOO    ",
"    OOOOOOOOOOOOOOOOOOOOOOOO    OOOOOOOOOOOOOOOOOOOOOOOOOOOO    ",
"    OOOOOOOO    OOOOOOOOOOOO        OOOOOOOOOOOOOOOOOOOOOOOO    ",
"    OOOOOOOO    OOOOOOOOOOOO        OOOOOOOOOOOOOOOOOOOOOOOO    ",
"    OOOOOOOO    OOOOOOOOOOOO        OOOOOOOOOOOOOOOOOOOOOOOO    ",
"    OOOOOOOO    OOOOOOOOOOOO        OOOOOOOOOOOOOOOOOOOOOOOO    ",
"                                                                ",
"                                                                ",
"                                                                ",
"                                                                ",
"    ............    ....................    ................    ",
"    ............    ....................    ................    ",
"    ............    ....................    ................    ",
"    ............    ....................    ................    ",
"    OOOOOOOOOOOO    OOOOOOOOOOOOOOOOOOOO    OOOOOOOOOOOOOOOO    ",
"    OOOOOOOOOOOO    OOOOOOOOOOOOOOOOOOOO    OOOOOOOOOOOOOOOO    ",
"    OOOOOOOOOOOO    OOOOOOOOOOOOOOOOOOOO    OOOOOOOOOOOOOOOO    ",
"    OOOOOOOOOOOO    OOOOOOOOOOOOOOOOOOOO    OOOOOOOOOOOOOOOO    ",
"    OOOOOOOOOOOO    OOOOOOOOOOOO    OOOO    OOOO    OOOOOOOO    ",
"    OOOOOOOOOOOO    OOOOOOOOOOOO    OOOO    OOOO    OOOOOOOO    ",
"    OOOOOOOOOOOO    OOOOOOOOOOOO    OOOO    OOOO    OOOOOOOO    ",
"    OOOOOOOOOOOO    OOOOOOOOOOOO    OOOO    OOOO    OOOOOOOO    ",
"                                                                ",
"                                                                ",
"                                                                ",
"                                                                "
};
