/* XPM */
static char *upscaled[] = {
"64 64 5 1",
"  c None",
". c #222222",
"X c #775C55",
"o c #AA8D7A",
"O c #D3BFA9",
"                    ........................                    ",
"                    ........................                    ",
"                    ........................                    ",
"                    ........................                    ",
"                    ....XXXXooooooooXXXX....                    ",
"                    ....XXXXooooooooXXXX....                    ",
"                    ....XXXXooooooooXXXX....                    ",
"                    ....XXXXooooooooXXXX....                    ",
"                    ....oooooooooooooooo....                    ",
"                    ....oooooooooooooooo....                    ",
"                    ....oooooooooooooooo....                    ",
"                    ....oooooooooooooooo....                    ",
"                    ....oooooooooooooooo....                    ",
"                    ....oooooooooooooooo....                    ",
"                    ....oooooooooooooooo....                    ",
"                    ....oooooooooooooooo....                    ",
"                    ....oooooooooooooooo....                    ",
"                    ....oooooooooooooooo....                    ",
"                    ....oooooooooooooooo....                    ",
"                    ....oooooooooooooooo....                    ",
"                    ....oooooooooooooooo....                    ",
"                    ....oooooooooooooooo....                    ",
"                    ....oooooooooooooooo....                    ",
"                    ....oooooooooooooooo....                    ",
"                    ....oooooooooooooooo....                    ",
"                    ....oooooooooooooooo....                    ",
"                    ....oooooooooooooooo....                    ",
"                    ....oooooooooooooooo....                    ",
"                    ....oooooooooooooooo....                    ",
"                    ....oooooooooooooooo....                    ",
"                    ....oooooooooooooooo....                    ",
"                    ....oooooooooooooooo....                    ",
"                    ....OOOOOOOOOOOOOOOO....                    ",
"                    ....OOOOOOOOOOOOOOOO....                    ",
"                    ....OOOOOOOOOOOOOOOO....                    ",
"                    ....OOOOOOOOOOOOOOOO....                    ",
"                    ........................                    ",
"                    ........................                    ",
"                    ........................                    ",
"                    ........................                    ",
"                    ....oooooooooooooooo....                    ",
"                    ....oooooooooooooooo....                    ",
"                    ....oooooooooooooooo....                    ",
"                    ....oooooooooooooooo....                    ",
"                    ....oooooooooooooooo....                    ",
"                    ....oooooooooooooooo....                    ",
"                    ....oooooooooooooooo....                    ",
"                    ....oooooooooooooooo....                    ",
"                    ....oooooooooooooooo....                    ",
"                    ....oooooooooooooooo....                    ",
"                    ....oooooooooooooooo....                    ",
"                    ....oooooooooooooooo....                    ",
"                    ....oooooooooooooooo....                    ",
"                    ....oooooooooooooooo....                    ",
"                    ....oooooooooooooooo....                    ",
"                    ....oooooooooooooooo....                    ",
"                    ....oooooooooooooooo....                    ",
"                    ....oooooooooooooooo....                    ",
"                    ....oooooooooooooooo....                    ",
"                    ....oooooooooooooooo....                    ",
"                    ....oooooooooooooooo....                    ",
"                    ....oooooooooooooooo....                    ",
"                    ....oooooooooooooooo....                    ",
"                    ....oooooooooooooooo....                    "
};
