/* XPM */
static char * collectible_xpm[] = {
"64 64 6 1",
" 	c #222222",
".	c #483B3A",
"+	c #775C55",
"@	c #417089",
"#	c #5698CC",
"$	c #243F4C",
"            ....                ............    ....            ",
"            ....                ............    ....            ",
"            ....                ............    ....            ",
"            ....                ............    ....            ",
"    ........................................................++++",
"    ........................................................++++",
"    ........................................................++++",
"    ........................................................++++",
"............@@@@################################@@@@........++++",
"............@@@@################################@@@@........++++",
"............@@@@################################@@@@........++++",
"............@@@@################################@@@@........++++",
"............########################################........++++",
"............########################################........++++",
"............########################################........++++",
"............########################################........++++",
"    ........########################################........++++",
"    ........########################################........++++",
"    ........########################################........++++",
"    ........########################################........++++",
"........    ########################################    ....++++",
"........    ########################################    ....++++",
"........    ########################################    ....++++",
"........    ########################################    ....++++",
"    ....    ########################################    ........",
"    ....    ########################################    ........",
"    ....    ########################################    ........",
"    ....    ########################################    ........",
"    ....    ########################################    ....++++",
"    ....    ########################################    ....++++",
"    ....    ########################################    ....++++",
"    ....    ########################################    ....++++",
"    ....    ########################################    ........",
"    ....    ########################################    ........",
"    ....    ########################################    ........",
"    ....    ########################################    ........",
"........    ########################################    ....++++",
"........    ########################################    ....++++",
"........    ########################################    ....++++",
"........    ########################################    ....++++",
"........    @@@@################################@@@@    ....++++",
"........    @@@@################################@@@@    ....++++",
"........    @@@@################################@@@@    ....++++",
"........    @@@@################################@@@@    ....++++",
"    ....    $$$$$$$$$$$$$$$$$$$$$$$$$$$$$$$$$$$$$$$$    ........",
"    ....    $$$$$$$$$$$$$$$$$$$$$$$$$$$$$$$$$$$$$$$$    ........",
"    ....    $$$$$$$$$$$$$$$$$$$$$$$$$$$$$$$$$$$$$$$$    ........",
"    ....    $$$$$$$$$$$$$$$$$$$$$$$$$$$$$$$$$$$$$$$$    ........",
"    ....    $$$$$$$$$$$$$$$$$$$$$$$$$$$$$$$$$$$$$$$$    ........",
"    ....    $$$$$$$$$$$$$$$$$$$$$$$$$$$$$$$$$$$$$$$$    ........",
"    ....    $$$$$$$$$$$$$$$$$$$$$$$$$$$$$$$$$$$$$$$$    ........",
"    ....    $$$$$$$$$$$$$$$$$$$$$$$$$$$$$$$$$$$$$$$$    ........",
"    ........                                        ........++++",
"    ........                                        ........++++",
"    ........                                        ........++++",
"    ........                                        ........++++",
"    ........................................................++++",
"    ........................................................++++",
"    ........................................................++++",
"    ........................................................++++",
"++++++++++++........++++....++++++++++++++++....++++++++++++++++",
"++++++++++++........++++....++++++++++++++++....++++++++++++++++",
"++++++++++++........++++....++++++++++++++++....++++++++++++++++",
"++++++++++++........++++....++++++++++++++++....++++++++++++++++"};
