/* XPM */
static char * player_one_xpm[] = {
"64 64 8 1",
" 	c None",
".	c #222222",
"+	c #3D734F",
"@	c #314152",
"#	c #4BA747",
"$	c #D3BFA9",
"%	c #483B3A",
"&	c #775C55",
"....                 ....                                       ",
"....                 ....                                       ",
"....                 ....                                       ",
".........            .........                                  ",
".........            .........                                  ",
".........            .........                                  ",
".........            .........                                  ",
"....+++++.........   ....+++++.........                         ",
"....+++++.........   ....+++++.........                         ",
"....+++++.........   ....+++++.........                         ",
"....++++++++++++++.......@@@@@@@@@@@@@@.....................    ",
"....++++++++++++++.......@@@@@@@@@@@@@@.....................    ",
"....++++++++++++++.......@@@@@@@@@@@@@@.....................    ",
"    .....###################################################....",
"    .....###################################################....",
"    .....###################################################....",
"    .....###################################################....",
"    .....###################################################....",
"    .....###################################################....",
"    .....###################################################....",
"    .....############.........#########....############.........",
"    .....############.........#########....############.........",
"    .....############.........#########....############.........",
"    .....############.........#########....############.........",
"    .....############.........#########++++############+++++....",
"    .....############.........#########++++############+++++....",
"    .....############.........#########++++############+++++....",
"    .....############+++++++++##############################....",
"    .....############+++++++++##############################....",
"    .....############+++++++++##############################....",
"         ....###############################################....",
"         ....###############################################....",
"         ....###############################################....",
"         ....###############################################....",
"         ....#####################+++++@@@@@@@@@@@@.............",
"         ....#####################+++++@@@@@@@@@@@@.............",
"         ....#####################+++++@@@@@@@@@@@@.............",
"         ....#####################$$$$$$$$$$$$.....             ",
"         ....#####################$$$$$$$$$$$$.....             ",
"         ....#####################$$$$$$$$$$$$.....             ",
"         ....#################$$$$$$$$$$$$$$$$.....             ",
"         ....#################$$$$$$$$$$$$$$$$.....             ",
"         ....#################$$$$$$$$$$$$$$$$.....             ",
"         ....#################$$$$$$$$$$$$$$$$.....             ",
"    .........#################$$$$$$$$$$$$$$$$.....             ",
"    .........#################$$$$$$$$$$$$$$$$.....             ",
"    .........#################$$$$$$$$$$$$$$$$.....             ",
"....#########%%%%%%%%%%%%%%%%%%%%%%%%%%%%%%%%%.....             ",
"....#########%%%%%%%%%%%%%%%%%%%%%%%%%%%%%%%%%.....             ",
"....#########%%%%%%%%%%%%%%%%%%%%%%%%%%%%%%%%%.....             ",
"....#########%%%%%%%%%%%%%%%%%%%%%%%%%%%%%%%%%.....             ",
".............&&&&&&&&&&&&&&&&&&&&&&&&&&&&&&&&&.....             ",
".............&&&&&&&&&&&&&&&&&&&&&&&&&&&&&&&&&.....             ",
".............&&&&&&&&&&&&&&&&&&&&&&&&&&&&&&&&&.....             ",
"         ....########....&&&&&&&&&.....#######.....             ",
"         ....########....&&&&&&&&&.....#######.....             ",
"         ....########....&&&&&&&&&.....#######.....             ",
"         ....#####...    ..............####...                  ",
"         ....#####...    ..............####...                  ",
"         ....#####...    ..............####...                  ",
"         ....#####...    ..............####...                  ",
"         .........                .........                     ",
"         .........                .........                     ",
"         .........                .........                     "};
