/* XPM */
static char *_2b340ab15d842e2f77ec64ad85b3f18nZgqkKLJug5pzLFa[] = {
/* columns rows colors chars-per-pixel */
"16 16 5 1 ",
"  c #222222",
". c #775C55",
"X c #AA8D7A",
"o c #D3BFA9",
"O c #483B3A",
/* pixels */
"                ",
" .XXXXXXXX XXXX ",
" XXXXXXXXX XXXX ",
" XXXXXXXXX XXXX ",
" ooooooooo oooo ",
" ......... .... ",
" OOOOOOOOO OOOO ",
"                ",
" ...... ....... ",
" OOOOOO OOOOOOO ",
" OO OOO  OOOOOO ",
"                ",
" ... ..... .... ",
" OOO OOOOO OOOO ",
" OOO OOO O O OO ",
"                "
};
